<?xml version="1.0" encoding="utf-8"?>
<!-- Generator: Adobe Illustrator 22.1.0, SVG Export Plug-In . SVG Version: 6.00 Build 0)  -->
<svg version="1.1" id="Layer_1" xmlns="http://www.w3.org/2000/svg" xmlns:xlink="http://www.w3.org/1999/xlink" x="0px" y="0px"
	 viewBox="0 0 150 120.4" style="enable-background:new 0 0 150 120.4;" xml:space="preserve">
<style type="text/css">
	.st0{fill:#FFFFFF;}
	.st1{fill:#EC6761;}
</style>
<title>Artboard 35</title>
<g id="Layer_1_1_">
	<path class="st0" d="M89.2,68.4H119l3.5,14.7h11.7v-42h-11.7L119,55.2H86.8l30.6-42.8h12.3l6,17.7h14.3L148.2,0H2.3L0,47.7h15
		l6.5-35.4h3.3l0,0h9.1l34.4,48.1l-34.4,48h-0.1l-19.2,1.9v10h19.2l0,0h83.9l0,0H137v-10l-19.2-1.9L89.2,68.4z M49,12.3h48.7v0.1
		h4.9L75.9,49.8L49,12.3z M75.7,70.7l27,37.7H48.7L75.7,70.7z"/>
</g>
<g>
	<path class="st1" d="M61.5,90.5H90l12.5,17.8c0,0-53.6,0-53.7,0C48.7,108.3,61.5,90.5,61.5,90.5z"/>
	<polygon class="st1" points="75.9,49.8 89.4,31.1 62.4,31.1 	"/>
</g>
<g id="Layer_1_2_">
	<path class="st0" d="M89.2,68.4H119l3.5,14.7h11.7v-42h-11.7L119,55.2H86.8l30.6-42.8h12.3l6,17.7h14.3L148.2,0H2.3L0,47.7h15
		l6.5-35.4h3.3l0,0h9.1l34.4,48.1l-34.4,48h-0.1l-19.2,1.9v10h19.2l0,0h83.9l0,0H137v-10l-19.2-1.9L89.2,68.4z M49,12.3h48.7v0.1
		h4.9L75.9,49.8L49,12.3z M75.7,70.7l27,37.7H48.7L75.7,70.7z"/>
</g>
</svg>
