<?xml version="1.0" encoding="utf-8"?>
<!-- Generator: Adobe Illustrator 22.1.0, SVG Export Plug-In . SVG Version: 6.00 Build 0)  -->
<svg version="1.1" id="Camada_1" xmlns="http://www.w3.org/2000/svg" xmlns:xlink="http://www.w3.org/1999/xlink" x="0px" y="0px"
	 viewBox="0 0 30.3 24" style="enable-background:new 0 0 30.3 24;" xml:space="preserve">
<path d="M3.6,4.9c0-0.4-0.1-0.7-0.4-1L0.4,0.5V0h8.8L16,14.9L22,0h8.4v0.5l-2.4,2.3c-0.2,0.2-0.3,0.4-0.3,0.7v17.1
	c0,0.3,0.1,0.5,0.3,0.7l2.4,2.3v0.5H18.4v-0.5l2.5-2.4c0.2-0.2,0.2-0.3,0.2-0.7V6.7L14.3,24h-0.9L5.4,6.7v11.6
	c-0.1,0.5,0.1,1,0.4,1.3L9,23.5V24H0v-0.5l3.2-3.9c0.3-0.4,0.5-0.8,0.4-1.3C3.6,18.3,3.6,4.9,3.6,4.9z"/>
</svg>
