<?xml version="1.0" encoding="utf-8"?>
<!-- Generator: Adobe Illustrator 22.1.0, SVG Export Plug-In . SVG Version: 6.00 Build 0)  -->
<svg version="1.1" id="Camada_1" xmlns="http://www.w3.org/2000/svg" xmlns:xlink="http://www.w3.org/1999/xlink" x="0px" y="0px"
	 viewBox="0 0 29.6 24" style="enable-background:new 0 0 29.6 24;" xml:space="preserve">
<path d="M29.5,2.9c-1.1,0.5-2.2,0.8-3.5,0.9c1.2-0.7,2.2-1.9,2.7-3.3c-1.2,0.7-2.5,1.2-3.8,1.5c-1.1-1.2-2.7-1.9-4.4-1.9
	c-3.9,0-6.8,3.6-5.9,7.4c-5-0.3-9.5-2.7-12.4-6.3C0.5,3.9,1.3,7.5,4,9.3C3,9.2,2.1,9,1.2,8.5c-0.1,2.8,1.9,5.4,4.8,6
	c-0.8,0.2-1.8,0.3-2.7,0.1c0.8,2.4,3,4.1,5.6,4.2c-2.5,2-5.7,2.9-8.9,2.5C2.7,23,5.9,24,9.3,24c11.2,0,17.5-9.5,17.1-17.9
	C27.6,5.2,28.7,4.1,29.5,2.9z"/>
</svg>
